<?xml version="1.0" standalone="no"?>
<!DOCTYPE svg PUBLIC "-//W3C//DTD SVG 20010904//EN"
 "http://www.w3.org/TR/2001/REC-SVG-20010904/DTD/svg10.dtd">
<svg version="1.0" xmlns="http://www.w3.org/2000/svg"
 width="16.000000pt" height="16.000000pt" viewBox="0 0 16.000000 16.000000"
 preserveAspectRatio="xMidYMid meet">
<metadata>
Created by potrace 1.11, written by Peter Selinger 2001-2013
</metadata>
<g transform="translate(0.000000,16.000000) scale(0.004000,-0.004000)"
fill="#000000" stroke="none">
<path d="M1049 3126 c-2 -2 -25 -6 -50 -9 -167 -20 -349 -109 -452 -221 -97
-107 -140 -218 -140 -366 0 -145 46 -259 146 -363 116 -121 256 -194 572 -299
363 -121 447 -189 448 -363 1 -126 -64 -221 -183 -267 -69 -26 -246 -36 -346
-19 -132 23 -240 95 -289 190 -24 49 -49 147 -40 161 3 5 0 12 -6 16 -13 8
-355 7 -368 0 -12 -8 8 -134 31 -201 44 -128 135 -241 260 -322 91 -59 229
-116 316 -129 20 -3 57 -10 82 -14 25 -5 113 -7 195 -5 119 2 169 8 246 28
184 48 310 130 393 257 64 96 78 146 82 285 4 129 -8 193 -57 289 -75 151
-274 286 -557 378 -345 112 -459 170 -515 260 -77 124 -24 298 112 368 128 65
344 65 468 2 89 -46 155 -132 168 -218 4 -21 8 -48 10 -59 2 -11 4 -23 4 -27
1 -5 85 -8 187 -8 l187 0 -6 63 c-16 179 -119 349 -278 458 -131 89 -272 129
-475 135 -77 2 -142 2 -145 0z"/>
<path d="M2915 2565 c-110 -24 -203 -75 -282 -156 l-43 -43 -1 32 c-1 18 -3
41 -4 52 -1 11 -3 38 -4 60 l-1 40 -170 0 c-129 0 -170 -3 -170 -12 -1 -18 -1
-1425 0 -1520 l0 -78 180 0 180 0 0 577 0 576 39 52 c82 108 211 156 359 133
80 -13 129 -42 166 -100 39 -60 42 -113 42 -686 l-1 -552 182 0 183 0 -4 593
c-2 325 -6 610 -11 632 -40 218 -160 355 -348 399 -72 17 -217 17 -292 1z"/>
</g>
</svg>
